<svg width="14" height="21" viewBox="0 0 14 21" fill="none" xmlns="http://www.w3.org/2000/svg">
<path d="M11.111 20.624C10.4807 20.6245 9.87067 20.4008 9.39001 19.993L0.942009 12.849C0.646415 12.5985 0.408927 12.2865 0.24604 11.9349C0.0831533 11.5833 -0.0012207 11.2005 -0.0012207 10.813C-0.0012207 10.4255 0.0831533 10.0427 0.24604 9.69107C0.408927 9.33947 0.646415 9.02756 0.942009 8.77701L9.38802 1.631C9.65435 1.39738 9.96456 1.21917 10.3005 1.10677C10.6365 0.994362 10.9915 0.950031 11.3448 0.976348C11.6981 1.00267 12.0426 1.09911 12.3582 1.26005C12.6739 1.42099 12.9542 1.64319 13.183 1.9137C13.4118 2.1842 13.5844 2.49757 13.6907 2.83552C13.7971 3.17346 13.835 3.52921 13.8023 3.88198C13.7697 4.23475 13.667 4.57747 13.5004 4.89014C13.3338 5.2028 13.1066 5.47914 12.832 5.70301L6.79501 10.813L12.832 15.92C13.2486 16.273 13.5468 16.7455 13.6862 17.2734C13.8256 17.8014 13.7995 18.3594 13.6115 18.8721C13.4234 19.3848 13.0825 19.8273 12.6347 20.1399C12.187 20.4525 11.6541 20.6201 11.108 20.62L11.111 20.624Z" fill="#371BC6"/>
</svg>
