<svg width="13" height="8" viewBox="0 0 13 8" fill="none" xmlns="http://www.w3.org/2000/svg">
<path d="M6.32497 5.053L7.62497 3.753L11.104 0.271002C11.1876 0.186948 11.287 0.120247 11.3965 0.0747337C11.506 0.0292201 11.6234 0.00579071 11.742 0.00579071C11.8605 0.00579071 11.978 0.0292201 12.0874 0.0747337C12.1969 0.120247 12.2963 0.186948 12.38 0.271002C12.5483 0.441497 12.6427 0.671428 12.6427 0.911002C12.6427 1.15058 12.5483 1.38051 12.38 1.551L6.96297 6.972C6.79877 7.13628 6.57742 7.23072 6.3452 7.23556C6.11298 7.24041 5.88788 7.15529 5.71697 6.998L0.263975 1.553C0.0942363 1.38379 -0.00133281 1.15409 -0.00170788 0.914416C-0.00208294 0.674745 0.0927664 0.444741 0.261974 0.275002C0.431183 0.105264 0.660889 0.00969438 0.900561 0.00931931C1.14023 0.00894423 1.37024 0.103795 1.53997 0.273003L6.32497 5.053Z" fill="#FEA01A"/>
</svg>
