<svg width="40" height="87" viewBox="0 0 40 87" fill="none" xmlns="http://www.w3.org/2000/svg">
<path d="M-3.32801 0C-3.50901 0 -3.68501 0.0119999 -3.86401 0.0139999V86.369C-3.68501 86.369 -3.50901 86.383 -3.32801 86.383C2.34391 86.383 7.96029 85.2658 13.2005 83.0953C18.4406 80.9247 23.202 77.7433 27.2126 73.7326C31.2233 69.722 34.4047 64.9607 36.5753 59.7205C38.7458 54.4803 39.863 48.8639 39.863 43.192C39.863 37.5201 38.7458 31.9037 36.5753 26.6635C34.4047 21.4233 31.2233 16.662 27.2126 12.6514C23.202 8.6407 18.4406 5.45927 13.2005 3.28872C7.96029 1.11817 2.34391 -1.19527e-07 -3.32801 0Z" fill="#1C6ADC"/>
</svg>
